<?xml version="1.0" encoding="UTF-8"?>
<svg id="Capa_1" data-name="Capa 1" xmlns="http://www.w3.org/2000/svg" viewBox="0 0 87.2 86.71">
  <path d="m82.26,77.99l-22.56-22.56c4.37-5.4,7-12.25,7-19.72,0-17.31-14.09-31.4-31.4-31.4S3.91,18.4,3.91,35.71s14.09,31.4,31.4,31.4c7.47,0,14.33-2.63,19.72-7l22.56,22.56c.64.64,1.49.97,2.34.97s1.69-.32,2.34-.97c1.29-1.29,1.29-3.38,0-4.67Zm-46.95-17.49c-13.67,0-24.79-11.12-24.79-24.79s11.12-24.79,24.79-24.79,24.79,11.12,24.79,24.79-11.12,24.79-24.79,24.79Z" style="fill: #1fa9ff;"/>
</svg>