<?xml version="1.0" encoding="UTF-8"?>
<svg id="Capa_1" data-name="Capa 1" xmlns="http://www.w3.org/2000/svg" viewBox="0 0 156.62 148.33">
  <path id="Product_Return" data-name="Product Return" d="m146.3,75.06c0,37.49-30.5,67.99-67.99,67.99S10.32,112.55,10.32,75.06c0-2.35,1.9-4.25,4.25-4.25s4.25,1.9,4.25,4.25c0,32.8,26.69,59.49,59.49,59.49s59.49-26.69,59.49-59.49S111.11,15.57,78.31,15.57c-15.81,0-30.49,6.15-41.53,17h16.04c2.35,0,4.25,1.9,4.25,4.25s-1.9,4.25-4.25,4.25h-25.5c-2.35,0-4.25-1.9-4.25-4.25V11.32c0-2.35,1.9-4.25,4.25-4.25s4.25,1.9,4.25,4.25v14.5c12.54-11.97,29.01-18.75,46.74-18.75,37.49,0,67.99,30.5,67.99,67.99Zm-29.75-17v38.25c0,1.77-1.1,3.36-2.76,3.98l-34,12.75c-.48.18-.99.27-1.49.27s-1.01-.09-1.49-.27l-34-12.75c-1.66-.62-2.76-2.21-2.76-3.98v-38.25c0-1.77,1.1-3.36,2.76-3.98l34-12.75c.96-.36,2.03-.36,2.99,0l34,12.75c1.66.62,2.76,2.21,2.76,3.98Zm-60.14,0l21.89,8.21,21.89-8.21-21.89-8.21-21.89,8.21Zm-7.85,35.3l25.5,9.56v-29.17l-25.5-9.56v29.17Zm59.49,0v-29.17l-25.5,9.56v29.17l25.5-9.56Z" style="fill: #f15a24;"/>
</svg>