<?xml version="1.0" encoding="UTF-8"?>
<svg id="Capa_1" data-name="Capa 1" xmlns="http://www.w3.org/2000/svg" viewBox="0 0 169.19 117.83">
  <path d="m156.52,57l-9.15-8.49c-.62-.58-1.1-1.3-1.4-2.1l-7.19-19.52c-2.1-5.63-7.48-9.37-13.49-9.39h-10.89v-3.06c0-2.74-2.22-4.95-4.95-4.95H43.62c-2.04-.02-3.72,1.58-3.8,3.61-.04,2.03,1.58,3.71,3.61,3.75.02,0,.05,0,.07,0h63.54v31.94c0,2.74,2.22,4.95,4.95,4.95h29.92l8.89,8v29.83h-8.06c-1.96-8.56-10.48-13.91-19.04-11.96-5.95,1.36-10.6,6.01-11.96,11.96h-24.79c-1.96-8.56-10.48-13.91-19.04-11.96-5.95,1.36-10.6,6.01-11.96,11.96h-12.33c-2.04-.02-3.72,1.58-3.8,3.61-.04,2.03,1.58,3.71,3.61,3.75.02,0,.05,0,.07,0h12.52c2.11,8.53,10.73,13.73,19.25,11.62,5.73-1.42,10.2-5.89,11.62-11.62h24.92c2.11,8.53,10.73,13.73,19.25,11.62,5.73-1.42,10.2-5.89,11.62-11.62h10.53c2.74,0,4.95-2.22,4.95-4.95v-33.31c0-1.4-.6-2.74-1.64-3.68h0Zm-42.12-10.61v-21.53h10.89c2.94,0,5.56,1.83,6.59,4.58l6.28,16.94h-23.75Zm-42.95,57.28c-4.72,0-8.54-3.82-8.54-8.54,0-4.72,3.82-8.54,8.54-8.54s8.54,3.82,8.54,8.54h0c0,4.71-3.83,8.53-8.54,8.54Zm55.79,0c-4.72,0-8.54-3.82-8.54-8.54s3.82-8.54,8.54-8.54c4.72,0,8.54,3.82,8.54,8.54h0c0,4.71-3.83,8.53-8.54,8.54Z" style="fill: #f15a24;"/>
  <path d="m27.78,37.45h41.75c2.03,0,3.68-1.65,3.68-3.68,0-2.03-1.65-3.68-3.68-3.68H27.78c-2.03,0-3.68,1.65-3.68,3.68,0,2.03,1.65,3.68,3.68,3.68Z" style="fill: #f15a24;"/>
  <path d="m73.21,54.22c0-2.03-1.65-3.68-3.68-3.68H10.75c-2.03-.02-3.7,1.62-3.71,3.65s1.62,3.7,3.65,3.71c.02,0,.04,0,.07,0h58.78c2.03,0,3.68-1.65,3.68-3.68Z" style="fill: #f15a24;"/>
  <path d="m49.9,74.67c0-2.03-1.65-3.68-3.68-3.68h-25.59c-2.03.02-3.67,1.68-3.65,3.71.02,2.01,1.64,3.63,3.65,3.65h25.59c2.03,0,3.68-1.65,3.68-3.68h0Z" style="fill: #f15a24;"/>
</svg>