<?xml version="1.0" encoding="UTF-8"?>
<svg id="Capa_1" data-name="Capa 1" xmlns="http://www.w3.org/2000/svg" viewBox="0 0 156.82 106.06">
  <g>
    <path d="m81.65,63.33c-1.18,0-2.36-.37-3.39-1.12l-6.62-4.81c-.41-.29-.95-.29-1.36,0l-6.62,4.81c-2.06,1.5-4.73,1.5-6.79,0-2.06-1.5-2.88-4.03-2.1-6.45l2.53-7.78c.16-.48-.01-1-.42-1.29l-6.62-4.81c-2.06-1.5-2.88-4.03-2.1-6.45.79-2.42,2.94-3.99,5.49-3.99h8.18c.5,0,.94-.32,1.1-.8l2.53-7.78c.79-2.42,2.94-3.99,5.49-3.99s4.7,1.57,5.49,3.99l2.53,7.78c.16.48.6.8,1.1.8h8.18c2.55,0,4.7,1.57,5.49,3.99.79,2.42-.04,4.96-2.1,6.45l-6.62,4.81c-.41.29-.57.81-.42,1.29l2.53,7.78c.79,2.42-.04,4.96-2.1,6.45-1.03.75-2.21,1.12-3.39,1.12Zm-10.69-10.78c1.19,0,2.38.37,3.39,1.11l6.62,4.81c.61.45,1.15.15,1.36,0,.2-.15.65-.57.42-1.29l-2.53-7.78c-.78-2.39.07-4.98,2.1-6.45l6.62-4.81c.61-.45.5-1.05.42-1.29-.08-.24-.34-.8-1.1-.8h-8.18c-2.51,0-4.72-1.6-5.49-3.99l-2.53-7.78c-.23-.72-.85-.8-1.1-.8s-.86.08-1.1.8l-2.53,7.78c-.78,2.39-2.98,3.99-5.49,3.99h-8.18c-.76,0-1.02.56-1.1.8-.08.24-.19.85.42,1.29l6.62,4.81c2.03,1.47,2.87,4.07,2.1,6.45l-2.53,7.78c-.23.72.22,1.14.42,1.29.2.15.74.45,1.36,0l6.62-4.81c1.01-.74,2.2-1.11,3.39-1.11h0Z" style="fill: #1fa9ff;"/>
    <path d="m109.61,61.12c-1.18,0-2.36-.37-3.39-1.12-2.06-1.5-2.88-4.03-2.1-6.45l1.39-4.28c.16-.48-.01-1-.42-1.29l-3.64-2.64c-2.06-1.5-2.88-4.03-2.1-6.45.79-2.42,2.94-3.99,5.49-3.99h4.5c.5,0,.94-.32,1.1-.8l1.39-4.28c.79-2.42,2.94-3.99,5.49-3.99s4.7,1.57,5.49,3.99l1.39,4.28c.16.48.6.8,1.1.8h4.5c2.55,0,4.7,1.57,5.49,3.99.79,2.42-.04,4.96-2.1,6.45l-3.64,2.64c-.41.29-.57.81-.42,1.29l1.39,4.28c.79,2.42-.04,4.96-2.1,6.45-2.06,1.5-4.73,1.5-6.79,0l-3.64-2.64c-.41-.29-.95-.29-1.36,0l-3.64,2.64c-1.03.75-2.21,1.12-3.39,1.12h0Zm-4.77-21.62c-.76,0-1.02.56-1.1.8-.08.24-.19.85.42,1.29l3.64,2.64c2.03,1.47,2.87,4.07,2.1,6.45l-1.39,4.28c-.23.72.22,1.14.42,1.29.2.15.74.45,1.36,0l3.64-2.64c2.03-1.47,4.76-1.47,6.79,0l3.64,2.64c.61.45,1.15.15,1.36,0,.2-.15.65-.57.42-1.29l-1.39-4.28c-.78-2.39.07-4.98,2.1-6.45l3.64-2.64c.61-.45.5-1.05.42-1.29-.08-.24-.34-.8-1.1-.8h-4.5c-2.51,0-4.72-1.6-5.49-3.99l-1.39-4.28c-.23-.72-.85-.8-1.1-.8s-.86.08-1.1.8l-1.39,4.28c-.78,2.39-2.98,3.99-5.49,3.99h-4.5Z" style="fill: #1fa9ff;"/>
    <path d="m32.95,61.12c-1.18,0-2.36-.37-3.39-1.12l-3.64-2.64c-.41-.3-.95-.29-1.36,0l-3.64,2.64c-2.06,1.5-4.73,1.5-6.79,0-2.06-1.5-2.88-4.03-2.1-6.45l1.39-4.28c.16-.48-.01-1-.42-1.29l-3.64-2.64c-2.06-1.5-2.88-4.03-2.1-6.46.79-2.42,2.94-3.99,5.49-3.99h4.5c.5,0,.94-.32,1.1-.8l1.39-4.28c.79-2.42,2.94-3.99,5.49-3.99s4.7,1.57,5.49,3.99l1.39,4.28c.16.48.6.8,1.1.8h4.5c2.55,0,4.7,1.57,5.49,3.99.79,2.42-.04,4.96-2.1,6.45l-3.64,2.64c-.41.29-.57.81-.42,1.29l1.39,4.28c.79,2.42-.04,4.96-2.1,6.45-1.03.75-2.21,1.12-3.39,1.12h0Zm-7.71-8.61c1.19,0,2.38.37,3.39,1.11l3.64,2.64c.61.44,1.15.15,1.36,0,.2-.15.65-.57.42-1.29l-1.39-4.28c-.78-2.39.07-4.98,2.1-6.45l3.64-2.64c.61-.45.5-1.05.42-1.29-.08-.24-.34-.8-1.1-.8h-4.5c-2.51,0-4.72-1.6-5.49-3.99l-1.39-4.28c-.23-.72-.85-.8-1.1-.8s-.86.08-1.1.8l-1.39,4.28c-.78,2.39-2.98,3.99-5.49,3.99h-4.5c-.76,0-1.02.56-1.1.8-.08.24-.19.85.42,1.29l3.64,2.64c2.03,1.48,2.87,4.07,2.1,6.46l-1.39,4.28c-.23.72.22,1.14.42,1.29.2.15.75.44,1.36,0l3.64-2.64c1.02-.74,2.2-1.11,3.39-1.11h0Z" style="fill: #1fa9ff;"/>
  </g>
  <path d="m128.5,102.35c-.82.02-1.65-.18-2.43-.65l-25.34-15.46c-1.83-1.12-3.93-1.71-6.08-1.71h-42.96c-8.91,0-16.17-7.25-16.17-16.17v-3.64c0-1.28,1.03-2.31,2.31-2.31s2.31,1.03,2.31,2.31v3.64c0,6.37,5.18,11.55,11.55,11.55h42.96c2.99,0,5.93.82,8.48,2.38l25.34,15.46s.06,0,.06-.02l-.28-12.29c-.03-1.47.51-2.86,1.54-3.91,1.03-1.05,2.4-1.63,3.87-1.63,6.37,0,11.55-5.18,11.55-11.55V19.87c0-6.37-5.18-11.55-11.55-11.55H51.69c-6.37,0-11.55,5.18-11.55,11.55v7.37c0,1.28-1.03,2.31-2.31,2.31s-2.31-1.03-2.31-2.31v-7.37c0-8.91,7.25-16.17,16.17-16.17h81.98c8.91,0,16.17,7.25,16.17,16.17v48.5c0,8.91-7.25,16.17-16.17,16.17-.44,0-.8.38-.79.81,0,0,.28,12.26.28,12.27.06,2.66-2.22,4.68-4.66,4.74h0Z" style="fill: #1fa9ff;"/>
</svg>