<?xml version="1.0" encoding="UTF-8"?>
<svg id="Capa_1" data-name="Capa 1" xmlns="http://www.w3.org/2000/svg" viewBox="0 0 103.66 100.61">
  <path d="m98.04,50.31c0-24.39-20.69-44.16-46.21-44.16S5.62,25.92,5.62,50.31c0,22.04,16.9,40.31,38.99,43.63v-30.86h-11.73v-12.77h11.73v-9.73c0-11.07,6.9-17.18,17.45-17.18,5.06,0,10.34.86,10.34.86v10.87h-5.83c-5.74,0-7.53,3.4-7.53,6.9v8.28h12.82l-2.05,12.77h-10.77v30.86c22.09-3.31,38.99-21.58,38.99-43.63Z" style="fill: #1fa9ff;"/>
  <path d="m69.82,63.07l2.05-12.77h-12.82v-8.28c0-3.49,1.79-6.9,7.53-6.9h5.83v-10.87s-5.29-.86-10.34-.86c-10.56,0-17.45,6.11-17.45,17.18v9.73h-11.73v12.77h11.73v30.86c2.35.35,4.76.54,7.22.54s4.87-.18,7.22-.54v-30.86h10.77Z" style="fill: #fff;"/>
</svg>