<?xml version="1.0" encoding="UTF-8"?>
<svg id="Capa_1" data-name="Capa 1" xmlns="http://www.w3.org/2000/svg" viewBox="0 0 103.66 100.61">
  <ellipse cx="51.83" cy="50.31" rx="46.21" ry="44.16" style="fill: #1fa9ff;"/>
  <g>
    <path d="m51.83,27.51c7.77,0,8.69.03,11.76.16,2.84.12,4.38.58,5.4.96,1.36.5,2.33,1.11,3.35,2.08,1.02.97,1.65,1.9,2.18,3.2.4.98.87,2.45,1,5.16.14,2.93.17,3.81.17,11.24s-.03,8.3-.17,11.24c-.13,2.71-.6,4.18-1,5.16-.53,1.3-1.16,2.22-2.18,3.2-1.02.97-1.99,1.58-3.35,2.08-1.03.38-2.57.83-5.4.96-3.07.13-3.99.16-11.76.16s-8.69-.03-11.76-.16c-2.84-.12-4.38-.58-5.4-.96-1.36-.5-2.33-1.11-3.35-2.08-1.02-.97-1.65-1.9-2.18-3.2-.4-.98-.87-2.45-1-5.16-.14-2.93-.17-3.81-.17-11.24s.03-8.3.17-11.24c.13-2.71.6-4.18,1-5.16.53-1.3,1.16-2.22,2.18-3.2,1.02-.97,1.99-1.58,3.35-2.08,1.03-.38,2.57-.83,5.4-.96,3.07-.13,3.99-.16,11.76-.16m0-5.01c-7.9,0-8.89.03-12,.17-3.1.14-5.21.61-7.06,1.29-1.91.71-3.54,1.66-5.15,3.21-1.62,1.55-2.61,3.1-3.36,4.92-.72,1.77-1.21,3.79-1.35,6.75-.14,2.97-.18,3.91-.18,11.46s.03,8.5.18,11.46c.14,2.96.63,4.98,1.35,6.75.74,1.83,1.74,3.38,3.36,4.92,1.62,1.55,3.24,2.5,5.15,3.21,1.85.69,3.97,1.16,7.06,1.29,3.1.14,4.09.17,12,.17s8.89-.03,12-.17c3.1-.14,5.21-.61,7.06-1.29,1.91-.71,3.54-1.66,5.15-3.21,1.62-1.55,2.61-3.1,3.36-4.92.72-1.77,1.21-3.79,1.35-6.75.14-2.97.18-3.91.18-11.46s-.03-8.5-.18-11.46c-.14-2.96-.63-4.98-1.35-6.75-.74-1.83-1.74-3.38-3.36-4.92-1.62-1.55-3.24-2.5-5.15-3.21-1.85-.69-3.97-1.16-7.06-1.29-3.1-.14-4.09-.17-12-.17h0Z" style="fill: #fff;"/>
    <path d="m51.83,36.03c-8.25,0-14.94,6.39-14.94,14.28s6.69,14.28,14.94,14.28,14.94-6.39,14.94-14.28-6.69-14.28-14.94-14.28Zm0,23.55c-5.36,0-9.7-4.15-9.7-9.27s4.34-9.27,9.7-9.27,9.7,4.15,9.7,9.27-4.34,9.27-9.7,9.27Z" style="fill: #fff;"/>
    <ellipse cx="67.36" cy="35.46" rx="3.49" ry="3.34" style="fill: #fff;"/>
  </g>
</svg>