<?xml version="1.0" encoding="UTF-8"?>
<svg id="Capa_1" data-name="Capa 1" xmlns="http://www.w3.org/2000/svg" viewBox="0 0 156.62 148.33">
  <path d="m145.36,6.31c-1.59-1.59-4.17-1.59-5.76,0l-11.87,11.87c-.73-.35-1.5-.63-2.3-.83l-36.89-9.11c-4.14-1.04-8.59.2-11.61,3.22L11.02,77.25c-4.77,4.77-4.77,12.52,0,17.29l46.11,46.11c4.77,4.77,12.52,4.77,17.29,0l65.8-65.9c3.02-3.02,4.25-7.47,3.22-11.61l-9.11-36.89c-.2-.8-.48-1.57-.83-2.3l11.87-11.87c1.59-1.59,1.59-4.17,0-5.76Zm-9.84,58.81c.35,1.38-.07,2.86-1.07,3.87l-65.8,65.9c-1.59,1.59-4.18,1.59-5.76,0l-46.11-46.11c-1.59-1.59-1.59-4.18,0-5.76L82.68,17.22c.77-.77,1.82-1.19,2.89-1.19.33,0,.66.04.98.12l34.65,8.55-9.82,9.82c-4.54-2.16-10.16-1.37-13.91,2.39-4.77,4.77-4.77,12.52,0,17.29,2.38,2.38,5.51,3.58,8.65,3.58s6.26-1.19,8.65-3.58c3.76-3.76,4.55-9.37,2.39-13.91l9.82-9.82,8.55,34.65Zm-26.52-16.69c-1.59,1.59-4.17,1.59-5.76,0-1.59-1.59-1.59-4.18,0-5.76.79-.79,1.84-1.19,2.88-1.19s2.09.4,2.88,1.19h0s0,0,0,0c1.59,1.59,1.59,4.17,0,5.76Z" style="fill: #f15a24;"/>
  <path d="m74.42,54.19c-4.77-4.77-12.52-4.77-17.29,0-4.77,4.77-4.77,12.52,0,17.29,4.77,4.77,12.52,4.77,17.29,0,4.77-4.77,4.77-12.52,0-17.29Zm-5.76,11.53c-1.59,1.59-4.18,1.59-5.76,0s-1.59-4.18,0-5.76c1.59-1.59,4.17-1.59,5.76,0,1.59,1.59,1.59,4.17,0,5.76Z" style="fill: #f15a24;"/>
  <path d="m80.18,94.54c-4.78-4.78-12.51-4.78-17.29,0-4.77,4.77-4.77,12.52,0,17.29,4.78,4.78,12.51,4.78,17.29,0,4.77-4.77,4.77-12.52,0-17.29Zm-5.76,11.53c-1.59,1.59-4.17,1.59-5.76,0-1.59-1.59-1.59-4.18,0-5.76,1.59-1.59,4.17-1.59,5.76,0,1.59,1.59,1.59,4.17,0,5.76Z" style="fill: #f15a24;"/>
  <path d="m98.65,79.68c-.25-2.24-2.26-3.85-4.5-3.6l-51.88,5.76c-2.24.25-3.85,2.26-3.6,4.5.23,2.08,2,3.63,4.05,3.63.15,0,.3,0,.46-.03l51.88-5.76c2.24-.25,3.85-2.26,3.6-4.5Z" style="fill: #f15a24;"/>
</svg>