<?xml version="1.0" encoding="UTF-8"?>
<svg id="Capa_1" data-name="Capa 1" xmlns="http://www.w3.org/2000/svg" viewBox="0 0 97.66 108.27">
  <path d="m89.92,65.88c1.37-1.53,2.21-3.56,2.21-5.77,0-4.78-3.89-8.66-8.66-8.66h-16.81c1.66-5.05,2.38-11.76,2.38-14.63v-2.89c0-6.37-5.18-11.55-11.55-11.55h-2.89c-1.32,0-2.48.9-2.8,2.19l-1.57,6.29c-2.2,8.81-9.2,18.53-16.44,20.3-1.27-3.21-4.4-5.49-8.06-5.49H8.41c-1.59,0-2.89,1.29-2.89,2.89v51.97c0,1.59,1.29,2.89,2.89,2.89h17.32c3.44,0,6.42-2.02,7.82-4.94l9.92,3.31c3.24,1.08,6.62,1.63,10.04,1.63h24.19c4.78,0,8.66-3.89,8.66-8.66,0-1.13-.22-2.2-.61-3.19,3.67-1,6.38-4.37,6.38-8.36,0-2.22-.84-4.24-2.21-5.77,1.37-1.53,2.21-3.56,2.21-5.77s-.84-4.24-2.21-5.77Zm-61.3,28.87c0,1.59-1.3,2.89-2.89,2.89h-14.43v-46.19h14.43c1.59,0,2.89,1.3,2.89,2.89v40.42Zm49.08-25.98h5.77c1.59,0,2.89,1.3,2.89,2.89s-1.3,2.89-2.89,2.89h-5.77c-1.59,0-2.89,1.29-2.89,2.89s1.29,2.89,2.89,2.89h5.77c1.59,0,2.89,1.3,2.89,2.89s-1.3,2.89-2.89,2.89h-5.77c-1.59,0-2.89,1.29-2.89,2.89s1.29,2.89,2.89,2.89,2.89,1.3,2.89,2.89-1.3,2.89-2.89,2.89h-24.19c-2.8,0-5.56-.45-8.22-1.33l-10.9-3.63v-35.72c4.53-.86,8.96-3.73,12.96-8.42,3.91-4.58,7.08-10.66,8.47-16.26l1.03-4.11h.63c3.18,0,5.77,2.59,5.77,5.77v2.89c0,3.88-1.21,11.31-2.76,14.63h-5.9c-1.59,0-2.89,1.29-2.89,2.89s1.29,2.89,2.89,2.89h28.87c1.59,0,2.89,1.3,2.89,2.89s-1.3,2.89-2.89,2.89h-5.77c-1.59,0-2.89,1.29-2.89,2.89s1.29,2.89,2.89,2.89Z" style="fill: #1fa9ff;"/>
  <circle cx="19.96" cy="88.97" r="2.89" style="fill: #1fa9ff;"/>
  <path d="m60.38,4.87c-1.59,0-2.89,1.29-2.89,2.89v5.97c0,1.59,1.29,2.89,2.89,2.89s2.89-1.29,2.89-2.89v-5.97c0-1.59-1.29-2.89-2.89-2.89Z" style="fill: #1fa9ff;"/>
  <path d="m48.13,17.6l-4.08-4.08c-1.13-1.13-2.96-1.13-4.08,0-1.13,1.13-1.13,2.96,0,4.08l4.08,4.08c1.13,1.13,2.96,1.13,4.08,0,1.13-1.13,1.13-2.96,0-4.08Z" style="fill: #1fa9ff;"/>
  <path d="m80.79,13.51c-1.13-1.13-2.96-1.13-4.08,0l-4.08,4.08c-1.13,1.13-1.13,2.96,0,4.08,1.13,1.13,2.96,1.13,4.08,0l4.08-4.08c1.13-1.13,1.13-2.96,0-4.08Z" style="fill: #1fa9ff;"/>
</svg>