<?xml version="1.0" encoding="UTF-8"?>
<svg id="Capa_1" data-name="Capa 1" xmlns="http://www.w3.org/2000/svg" viewBox="0 0 106.8 106.06">
  <path d="m11.25,63.46c.62.58.85,1.46.61,2.27l-1.48,5.51c-1.2,4.51,1.47,9.14,5.98,10.35l5.75,1.54c.82.2,1.47.84,1.66,1.66l1.48,5.51c1.21,4.51,5.85,7.18,10.35,5.98l5.75-1.54c.81-.24,1.69,0,2.27.61l4.04,4.04c3.3,3.3,8.65,3.3,11.96,0l4.21-4.21c.58-.62,1.46-.85,2.27-.61l5.51,1.48c4.51,1.2,9.14-1.47,10.35-5.98l1.54-5.75c.2-.82.84-1.47,1.66-1.66l5.51-1.48c4.51-1.21,7.18-5.85,5.98-10.35l-1.54-5.75c-.24-.81,0-1.69.61-2.27l4.04-4.04c3.3-3.3,3.3-8.65,0-11.96l-4.21-4.21c-.62-.58-.85-1.46-.61-2.27l1.48-5.51c1.2-4.51-1.47-9.14-5.98-10.35l-5.75-1.54c-.82-.2-1.47-.84-1.66-1.66l-1.48-5.51c-1.21-4.51-5.85-7.18-10.35-5.98l-5.75,1.54c-.81.24-1.69,0-2.27-.61l-4.04-4.03c-3.3-3.3-8.65-3.3-11.96,0l-4.21,4.21c-.58.62-1.46.85-2.27.61l-5.51-1.48c-4.51-1.2-9.14,1.47-10.35,5.98l-1.54,5.75c-.2.82-.84,1.47-1.66,1.66l-5.51,1.48c-4.51,1.21-7.18,5.85-5.98,10.35l1.54,5.75c.24.81,0,1.69-.61,2.27l-4.03,4.04c-3.3,3.3-3.3,8.65,0,11.96l4.21,4.21Zm.11-11.85l4.04-4.04c2.15-2.13,2.99-5.25,2.19-8.17l-1.54-5.75c-.33-1.25.41-2.54,1.66-2.88l5.51-1.48c2.93-.77,5.21-3.05,5.98-5.98l1.54-5.75c.34-1.25,1.63-2,2.88-1.66l5.51,1.48c2.92.8,6.04-.04,8.17-2.19l4.21-4.21c.92-.92,2.41-.92,3.32,0l4.03,4.04c2.13,2.15,5.25,2.99,8.17,2.19l5.75-1.54c1.25-.33,2.54.41,2.88,1.66l1.48,5.51c.77,2.93,3.05,5.21,5.98,5.98l5.75,1.54c1.25.34,2,1.62,1.66,2.88l-1.48,5.51c-.8,2.92.04,6.04,2.19,8.17l4.21,4.21c.91.92.91,2.4,0,3.32l-4.04,4.04c-2.15,2.13-2.99,5.25-2.19,8.17l1.54,5.75c.33,1.25-.41,2.54-1.66,2.88l-5.51,1.48c-2.93.77-5.21,3.05-5.98,5.98l-1.54,5.75c-.34,1.25-1.63,1.99-2.88,1.66l-5.51-1.48c-2.92-.8-6.04.04-8.17,2.19l-4.21,4.21c-.92.92-2.41.92-3.32,0l-4.04-4.04c-1.57-1.59-3.71-2.48-5.94-2.48-.75,0-1.5.1-2.23.3l-5.75,1.54c-1.25.33-2.54-.41-2.88-1.66l-1.48-5.51c-.77-2.93-3.05-5.21-5.98-5.98l-5.75-1.54c-1.25-.34-2-1.62-1.66-2.88l1.48-5.51c.8-2.92-.04-6.04-2.19-8.17l-4.21-4.21c-.91-.92-.91-2.4,0-3.32h0Zm42.04,28.94c15.17,0,27.51-12.34,27.51-27.51s-12.34-27.51-27.51-27.51-27.51,12.34-27.51,27.51,12.34,27.51,27.51,27.51Zm0-48.92c11.82,0,21.41,9.59,21.41,21.41,0,11.82-9.59,21.41-21.41,21.41-11.82,0-21.41-9.59-21.41-21.41h0c.01-11.82,9.59-21.4,21.41-21.41h0Zm-7.81,31.84l-8.22-9.51c-1.1-1.28-.96-3.2.31-4.3,1.28-1.1,3.2-.96,4.3.31h0l6.21,7.18,16.91-14.84c1.26-1.12,3.19-1.01,4.31.25,1.12,1.26,1.01,3.19-.25,4.31,0,0-.02.02-.03.02l-19.22,16.86c-.56.49-1.27.76-2.01.76-.07,0-.14,0-.21,0-.81-.06-1.57-.43-2.1-1.05Z" style="fill: #1fa9ff;"/>
</svg>